# xmcd
#
# Track frame offsets: 
#        150
#        16950
#        33738
#        50786
#        68150
#        83256
#        99858
#        118008
#        132394
#        154684
#
# Disc length: 2281 seconds
#
# Revision: 2
# Processed by: cddbd v1.5.2PL0 Copyright (c) Steve Scherf et al.
# Submitted via: ExactAudioCopyFreeDBPlugin 1.0
#
DISCID=7a08e70a
DTITLE=Sheena Easton - Todo Me Recuerda A Ti
DYEAR=1984
DGENRE=Pop
TTITLE0=Telefono
TTITLE1=Todo Me Recuerda A Ti
TTITLE2=Amame
TTITLE3=La  Noche Y Tu
TTITLE4=El Primer Tren
TTITLE5=Una Vez En La Vida
TTITLE6=Mi Corazon Vuela
TTITLE7=Me Gustas Tal Como Eres
TTITLE8=No Puedes Dejarme Asi
TTITLE9=Brindo Por Un Amor
EXTD=
EXTT0=
EXTT1=
EXTT2=
EXTT3=
EXTT4=
EXTT5=
EXTT6=
EXTT7=
EXTT8=
EXTT9=
PLAYORDER=
